<svg xmlns="http://www.w3.org/2000/svg" id="Capa_1" viewBox="0 0 56 56" width="512" height="512"><path d="M46.3 0.1c-0.4-0.2-0.8-0.1-1.1 0.2s-0.4 0.7-0.2 1.1c0.8 2.1 0.8 3.8 0.1 5C43.9 8.4 41.2 8.9 40.8 9h-5V5.3C35.8 4 34.8 3 33.5 3H22.1c-1.3 0-2.3 1-2.3 2.3V9h-4.6c-0.4-0.1-3.1-0.6-4.2-2.6 -0.7-1.3-0.7-3 0.1-5 0.1-0.4 0-0.8-0.2-1.1 -0.3-0.3-0.7-0.4-1.1-0.2C9.1 0.4 6 2.3 5.9 13.4 5.9 13.6 5.8 13.8 5.8 14v33c0 2.8 2.2 5 5 5h3v1.7c0 1.3 1 2.3 2.3 2.3h23.4c1.3 0 2.3-1 2.3-2.3V52h3c2.8 0 5-2.2 5-5V21.6l0-0.5C51.4 2.9 46.8 0.3 46.3 0.1zM38.6 18.4c0.3 0.4 0.3 1.1-0.2 1.4l-5 4C33.3 23.9 33 24 32.8 24c-0.3 0-0.6-0.1-0.8-0.4 -0.3-0.4-0.3-1.1 0.2-1.4l5-4C37.6 17.9 38.3 17.9 38.6 18.4zM38.8 39c0 0.1 0 0.2 0 0.3l-2 6C36.6 45.7 36.3 46 35.8 46s-0.8-0.3-0.9-0.7L33.1 40h-8.6l-1.8 5.3C22.6 45.7 22.3 46 21.8 46s-0.8-0.3-0.9-0.7l-2-6c0-0.1 0-0.2 0-0.3 0 0 0 0 0 0 0 0 0 0 0 0 0-0.1 0-0.2 0.1-0.3 0 0 0 0 0 0 0-0.1 0.1-0.1 0.1-0.2 0 0 0.1-0.1 0.1-0.1 0 0 0 0 0 0 0.1-0.1 0.2-0.1 0.3-0.2 0 0 0 0 0.1 0C19.6 38 19.7 38 19.8 38h4 10 4c0.1 0 0.2 0 0.4 0.1 0 0 0 0 0.1 0 0.1 0 0.2 0.1 0.3 0.2 0 0 0 0 0 0 0 0 0.1 0.1 0.1 0.1 0 0.1 0.1 0.1 0.1 0.2 0 0 0 0 0 0 0 0.1 0.1 0.2 0.1 0.3 0 0 0 0 0 0C38.8 39 38.8 39 38.8 39zM18 18.4c0.3-0.4 1-0.5 1.4-0.2l5 4c0.4 0.3 0.5 1 0.2 1.4C24.4 23.9 24.1 24 23.8 24c-0.2 0-0.4-0.1-0.6-0.2l-5-4C17.8 19.4 17.7 18.8 18 18.4zM15.5 23.5c1.7 1.3 4.1 1.8 6.3 1.5 0 0.2 0.1 0.4 0.1 0.6 0 1.9-1.6 3.5-3.5 3.5s-3.5-1.6-3.5-3.5C14.8 24.7 15.1 24 15.5 23.5zM38.3 29c-1.9 0-3.5-1.6-3.5-3.5 0-0.2 0-0.4 0.1-0.6 2.2 0.3 4.6-0.2 6.3-1.5 0.4 0.6 0.7 1.3 0.7 2C41.8 27.4 40.3 29 38.3 29z" fill="#590000"/></svg>