<svg xmlns="http://www.w3.org/2000/svg" viewBox="0 0 512 512"><path d="m256 0c-136.8 0-240 94.7-240 220.3 0 41 15.8 133.2 16.5 137.1 2.6 15.2 15.7 26.4 31.2 26.6 44.6 0.5 48.2 13.9 48.4 27.9v58.4c0 15.8 11.5 29.2 27.1 31.6 0.9 0.1 8.9 1.4 20.9 2.9v-24.5c0-8.8 7.2-16 16-16s16 7.2 16 16v28.2c15.3 1.5 32 2.9 48 3.5v-31.7c0-8.8 7.2-16 16-16s16 7.2 16 16v31.6c15.5-0.6 32.5-2.1 48-3.6v-28c0-8.8 7.2-16 16-16s16 7.2 16 16v24.3c11.7-1.5 19.6-2.6 20.6-2.7 15.7-2.3 27.4-15.8 27.4-31.7v-55.1c-0.3-14.2 4.6-19.1 6.3-20.8 7.1-7.1 21.5-10.7 41.1-10.4 15.8 0.8 29.5-11 32.2-26.6 0.7-3.9 16.5-96.1 16.5-137.1 0-125.6-103.2-220.3-240-220.3zm-80 288c-26.5 0-48-20.9-48-46.7s21.5-33.3 48-33.3 48 7.6 48 33.3-21.5 46.7-48 46.7zm123.8 59.2c-3 4.9-8.2 7.6-13.6 7.6-2.9 0-5.8-0.8-8.4-2.4l-21.8-13.5-21.8 13.5c-7.5 4.7-17.4 2.4-22-5.1-4.7-7.5-2.4-17.4 5.1-22l30.2-18.8c5.2-3.2 11.7-3.2 16.9 0l30.2 18.8c7.5 4.7 9.8 14.5 5.1 22zm36.2-59.2c-26.5 0-48-20.9-48-46.7s21.5-33.3 48-33.3 48 7.6 48 33.3-21.5 46.7-48 46.7z"/></svg>