<svg xmlns="http://www.w3.org/2000/svg" viewBox="0 0 490.1 490.1" width="512" height="512"><style>.a{fill:#D80027;}</style><path d="M469.2 0.6H20.8C9.3 0.6 0 10 0 21.4v447.4c0 11.4 9.3 20.8 20.8 20.8h448.5c11.4 0 19.7-8.3 20.8-19.7V21.4C490 10 480.7 0.6 469.2 0.6zM448.5 449.1h-407v-407h406.9v407H448.5z" class="a"/><path d="M135 266.4h89.3v89.3c0 11.4 9.3 20.8 20.8 20.8s20.8-9.3 20.8-19.7v-90.3H355c11.4 0 20.8-9.3 21.8-20.8 0-11.4-9.3-20.8-20.8-20.8h-90.3v-89.3c0-11.4-9.3-20.8-20.8-20.8s-20.8 9.3-20.8 20.8v89.3H135c-11.4 0-20.8 9.3-20.8 20.8C114.2 257.2 123.5 266.4 135 266.4z" class="a"/></svg>