<svg xmlns="http://www.w3.org/2000/svg" width="512" height="512" viewBox="0 0 106.1 106.1"><path d="M90.5 15.5C69.9-5.2 36.2-5.2 15.5 15.5 -5.2 36.2-5.2 69.9 15.5 90.5c20.7 20.7 54.3 20.7 75 0C111.2 69.9 111.2 36.2 90.5 15.5zM84.8 84.8c-17.5 17.5-46 17.5-63.5 0 -17.5-17.5-17.5-46 0-63.5C38.8 3.8 67.3 3.8 84.8 21.3 102.3 38.8 102.3 67.3 84.8 84.8zM33.2 38.7c0-3.4 2.8-6.2 6.2-6.2 3.4 0 6.2 2.8 6.2 6.2 0 3.4-2.8 6.2-6.2 6.2C36 44.9 33.2 42.1 33.2 38.7zM61.4 38.7c0-3.4 2.8-6.2 6.2-6.2 3.4 0 6.2 2.8 6.2 6.2 0 3.4-2.8 6.2-6.2 6.2S61.4 42.1 61.4 38.7zM76 64.1c-3.8 8.9-12.8 14.6-22.9 14.6 -10.3 0-19.4-5.8-23.1-14.7 -0.6-1.5 0.1-3.3 1.6-3.9 0.4-0.2 0.8-0.2 1.2-0.2 1.2 0 2.3 0.7 2.8 1.9 2.8 6.7 9.7 11 17.5 11 7.7 0 14.5-4.3 17.4-11 0.7-1.5 2.4-2.2 3.9-1.6S76.7 62.5 76 64.1z" fill="#0f700b"/></svg>